<svg version="1.1" id="Layer_1" xmlns="http://www.w3.org/2000/svg" xmlns:xlink="http://www.w3.org/1999/xlink" x="0px" y="0px"
	 width="100%" viewBox="0 0 496 496" enable-background="new 0 0 496 496" xml:space="preserve">
<path fill="#000000" opacity="1.000000" stroke="none" 
	d="
M119.097641,205.725250 
	C116.386139,196.218231 113.799545,187.096542 111.245468,177.965759 
	C111.179344,177.729370 111.468811,177.393539 111.593689,177.102570 
	C112.715218,176.559479 113.564445,177.331406 114.307632,177.860703 
	C124.690384,185.255264 136.414734,186.732910 148.631027,185.313049 
	C152.401733,184.874786 152.738724,186.964005 153.365250,189.468338 
	C156.670502,202.680176 160.016556,215.881821 163.310867,229.096375 
	C163.706772,230.684494 163.924652,232.308868 165.476852,234.008087 
	C168.520828,227.238327 169.661438,220.229416 171.480667,213.464981 
	C178.693329,186.646103 185.758514,159.787216 192.766022,132.913864 
	C193.649628,129.525330 195.141205,127.774300 198.881653,127.899055 
	C205.041245,128.104507 211.216324,128.082260 217.377777,127.906700 
	C221.064087,127.801659 222.584885,129.398590 223.483307,132.908173 
	C228.678589,153.202805 234.096024,173.440643 239.468353,193.689728 
	C239.965714,195.564331 240.673950,197.382980 241.581543,200.126205 
	C245.665421,185.557648 251.248459,172.489548 261.835632,162.944397 
	C270.007935,155.576416 274.603516,147.211380 276.048981,136.642639 
	C276.294556,134.847076 277.132660,133.137573 277.440857,131.344284 
	C277.861023,128.899933 279.307922,127.985741 281.606415,127.984314 
	C292.772308,127.977394 303.938446,128.005783 315.103973,127.935669 
	C320.192444,127.903709 317.531006,131.903275 318.541565,134.671036 
	C323.861389,134.671036 329.331451,134.351822 334.752228,134.733200 
	C348.829224,135.723618 362.355408,138.770691 374.648438,146.181503 
	C378.067017,148.242386 378.614746,150.324356 376.726990,153.884750 
	C372.148956,162.519211 367.928680,171.343338 363.775360,179.667938 
	C361.461090,180.037964 360.477875,178.987274 359.338989,178.374237 
	C343.483612,169.839691 327.035492,168.943085 310.042328,174.416992 
	C306.902191,175.428482 305.178711,177.259247 304.270416,180.531403 
	C299.153015,198.967026 293.906219,217.367996 288.509796,235.723801 
	C287.461945,239.287903 288.000458,241.945129 290.283417,244.848541 
	C299.619171,256.721741 312.228027,261.678619 326.806244,262.669647 
	C339.666473,263.543915 351.544495,260.398560 362.599304,253.429520 
	C365.944427,256.924164 367.188446,261.330841 369.276123,265.221588 
	C371.795685,269.917236 373.804840,274.901428 376.518341,279.473846 
	C378.896820,283.481720 378.072601,285.939758 374.019531,287.731537 
	C372.225006,288.524841 370.743317,290.070465 368.610321,290.011017 
	C367.193054,289.088013 366.940857,287.579224 366.416931,286.180542 
	C362.011505,274.419312 349.357788,266.699158 337.580658,268.542755 
	C324.538513,270.584412 315.103760,280.839569 314.405579,294.175812 
	C314.206848,297.971497 312.844574,298.636078 309.425293,297.875366 
	C299.593445,295.688141 290.257446,292.305328 281.574341,287.172577 
	C279.733521,286.084412 277.880371,285.017029 275.671906,283.729614 
	C274.155090,287.468567 271.232574,287.437683 268.148346,287.409363 
	C258.316162,287.319153 248.478378,287.207275 238.651566,287.454346 
	C234.465698,287.559570 232.613754,286.295074 231.439850,282.011414 
	C224.579849,256.978821 217.338684,232.050568 210.198090,207.095139 
	C209.718384,205.418625 209.007767,203.808167 207.955734,200.945953 
	C203.499817,216.553726 199.413376,230.892395 195.311737,245.226730 
	C191.696716,257.860413 187.978561,270.465576 184.501724,283.137085 
	C183.647919,286.248840 182.175827,287.468323 178.930801,287.422546 
	C168.266571,287.272125 157.596451,287.231750 146.934036,287.434845 
	C143.452240,287.501160 141.885254,286.211609 140.974411,282.959839 
	C133.793655,257.323883 126.491600,231.721848 119.097641,205.725250 
z"/>
<path fill="#000000" opacity="1.000000" stroke="none" 
	d="
M352.391266,291.053101 
	C353.897797,297.496765 352.423523,302.185242 348.206879,305.097321 
	C343.880280,308.085327 338.421387,308.147949 334.225769,305.257751 
	C329.912933,302.286804 328.151550,297.146454 329.740326,291.594788 
	C331.051300,287.013672 334.167603,284.261017 338.921539,283.712311 
	C345.638702,282.937042 349.238647,284.891144 352.391266,291.053101 
z"/>
<path fill="#000000" opacity="1.000000" stroke="none" 
	d="
M175.523773,318.372772 
	C176.536362,320.855988 177.357025,323.001892 178.404114,325.739899 
	C179.220749,323.132843 179.897491,321.131165 180.468719,319.099823 
	C180.949997,317.388336 181.909378,316.434570 183.724167,316.990417 
	C185.539307,317.546417 185.105255,319.007263 184.757645,320.293274 
	C183.890015,323.503387 183.001190,326.708771 182.049347,329.894684 
	C181.514816,331.683777 180.871307,333.347778 178.432419,333.295685 
	C176.342285,333.251007 175.553360,331.916626 174.908447,330.323853 
	C174.362381,328.975220 173.883698,327.599274 173.306641,326.051575 
	C171.421829,327.446808 171.587082,329.445831 170.903458,331.038818 
	C170.235565,332.595215 169.160461,333.365601 167.422470,333.282074 
	C165.879486,333.207916 164.939713,332.476532 164.528198,331.024323 
	C163.272278,326.592468 162.024094,322.158417 160.532898,316.874878 
	C167.492874,316.767853 165.322968,323.058563 167.942871,325.223083 
	C171.775558,316.428192 171.775558,316.428192 175.523773,318.372772 
z"/>
<path fill="#000000" opacity="1.000000" stroke="none" 
	d="
M209.143433,320.345215 
	C210.104752,314.478546 214.319839,316.983734 217.130554,316.865295 
	C220.015488,316.743774 222.211380,319.237152 221.376953,321.755524 
	C220.005066,325.896027 220.781723,329.184418 223.641907,332.449524 
	C218.273834,335.027008 217.418961,329.580872 214.539200,328.244781 
	C213.315598,328.895782 214.101883,330.041718 213.838440,330.911804 
	C213.482590,332.087097 213.127197,333.117554 211.652817,333.174500 
	C209.929810,333.240997 209.234161,332.151611 209.184586,330.711365 
	C209.070984,327.411133 209.116684,324.105438 209.143433,320.345215 
z"/>
<path fill="#000000" opacity="1.000000" stroke="none" 
	d="
M242.852921,332.292511 
	C241.327164,327.121704 242.583771,322.384369 242.788651,317.054840 
	C247.066254,316.774567 251.445465,315.258514 254.788895,319.163696 
	C257.371643,322.180389 257.535828,325.832947 255.784271,329.428131 
	C253.845673,333.407227 250.336594,334.268707 242.852921,332.292511 
M252.241211,325.985718 
	C252.671387,323.946686 251.993378,322.371948 250.109924,321.494446 
	C249.136581,321.040924 247.926422,321.257385 247.567719,322.317657 
	C246.774414,324.662445 246.459503,327.075165 247.952667,329.207916 
	C250.278595,329.476471 251.235199,328.206268 252.241211,325.985718 
z"/>
<path fill="#000000" opacity="1.000000" stroke="none" 
	d="
M205.217300,326.639984 
	C202.575821,332.912689 198.209885,335.100983 193.570938,332.865936 
	C189.146713,330.734344 187.527969,324.936798 190.104721,320.505493 
	C192.286377,316.753632 195.772232,315.850525 199.539856,316.935669 
	C203.987305,318.216583 205.556824,321.769226 205.217300,326.639984 
M194.202881,327.353912 
	C196.002792,329.244354 197.921783,329.415924 199.735657,327.489532 
	C200.996582,326.150421 200.964371,324.485107 200.133469,322.902405 
	C199.337463,321.386139 197.931656,320.829437 196.382339,321.349640 
	C193.779434,322.223633 192.794464,324.055969 194.202881,327.353912 
z"/>
<path fill="#000000" opacity="1.000000" stroke="none" 
	d="
M308.176758,331.267456 
	C309.790009,327.056946 311.361420,323.229462 312.935852,319.403229 
	C313.616608,317.748840 314.625763,316.675842 316.640045,316.713013 
	C318.481323,316.746948 319.299347,317.834686 319.893829,319.272278 
	C321.655518,323.532349 323.384125,327.806091 325.178375,332.203613 
	C323.098694,333.675293 321.684723,333.529419 320.151062,331.943085 
	C317.797211,329.508362 315.228943,329.608826 312.773438,331.853943 
	C311.111328,333.373627 309.569183,334.349396 308.176758,331.267456 
z"/>
<path fill="#000000" opacity="1.000000" stroke="none" 
	d="
M288.697754,327.851593 
	C288.709167,324.887604 288.687653,322.400146 288.748047,319.914703 
	C288.780762,318.568939 288.904419,317.175690 290.680359,316.946198 
	C292.355408,316.729767 293.191406,317.608276 293.250275,319.191010 
	C293.330811,321.356659 294.180206,322.584137 296.540619,322.594177 
	C299.003845,322.604675 299.630920,321.172699 299.704407,319.091949 
	C299.750549,317.785767 300.291656,316.852386 301.798737,316.906250 
	C303.538269,316.968384 304.031097,318.159912 304.048370,319.596130 
	C304.092194,323.241058 304.095978,326.887756 304.029297,330.532135 
	C304.002686,331.988495 303.385376,333.159271 301.667450,333.092010 
	C300.165070,333.033203 299.792542,331.897156 299.745605,330.668640 
	C299.658051,328.376923 299.543091,326.302216 296.305969,326.472839 
	C293.460205,326.622833 293.271576,328.434418 293.246185,330.568573 
	C293.228333,332.071503 292.605652,333.294861 290.898529,333.058807 
	C287.877380,332.641083 289.028748,330.102234 288.697754,327.851593 
z"/>
<path fill="#000000" opacity="1.000000" stroke="none" 
	d="
M271.069000,320.435394 
	C272.960327,317.441376 275.471161,316.396057 278.505096,316.574646 
	C280.676117,316.702454 283.384003,316.883240 283.238922,319.729279 
	C283.102478,322.406738 280.719360,321.495026 278.921356,321.303223 
	C276.044312,320.996307 274.323761,322.502563 274.492340,325.316315 
	C274.665527,328.206848 276.702515,329.193817 279.452240,328.729034 
	C279.938507,328.646851 280.413940,328.460510 280.874329,328.273041 
	C282.089630,327.778290 283.267151,327.826477 283.929504,329.032013 
	C284.803650,330.623077 283.543701,331.576111 282.443390,332.248657 
	C279.321747,334.156586 276.048004,334.287994 273.149933,331.942261 
	C269.431763,328.932800 268.731049,325.093964 271.069000,320.435394 
z"/>
<path fill="#000000" opacity="1.000000" stroke="none" 
	d="
M340.818787,319.839539 
	C336.570343,320.869354 337.552765,324.033783 337.254181,326.727539 
	C337.009979,328.930664 338.668884,332.741394 335.250000,332.873566 
	C331.063141,333.035461 333.041290,328.933472 332.794098,326.677094 
	C332.503845,324.027313 332.912842,321.336456 329.709778,320.068756 
	C328.871582,319.737030 328.620239,318.527039 329.187195,317.935669 
	C331.466370,315.558380 334.469421,316.935547 337.146759,316.738281 
	C338.963104,316.604523 341.512390,316.158081 340.818787,319.839539 
z"/>
<path fill="#000000" opacity="1.000000" stroke="none" 
	d="
M232.057037,333.340271 
	C229.138947,333.425751 227.870590,332.257385 227.861923,329.779083 
	C227.850861,326.618835 227.816284,323.457947 227.866745,320.298553 
	C227.890579,318.806244 227.889343,317.112488 229.989670,316.991180 
	C232.182205,316.864532 232.202271,318.561401 232.282379,320.071259 
	C232.352814,321.398834 232.379593,322.734436 232.321747,324.061981 
	C232.182053,327.269012 232.155472,330.285095 236.828674,329.666779 
	C237.876755,329.528107 238.817139,330.072113 238.861969,331.330627 
	C238.905548,332.553833 238.092896,333.138489 236.997971,333.223267 
	C235.508606,333.338562 234.008591,333.316010 232.057037,333.340271 
z"/>
</svg>