<svg version="1.1" id="Layer_1" xmlns="http://www.w3.org/2000/svg" xmlns:xlink="http://www.w3.org/1999/xlink" x="0px" y="0px"
	 width="100%" viewBox="0 0 496 496" enable-background="new 0 0 496 496" xml:space="preserve">
<path fill="#000000" opacity="1.000000" stroke="none" 
	d="
M1.000000,384.000000 
	C1.000000,290.977997 1.000000,197.955978 1.252336,104.660263 
	C4.467082,106.225090 8.371444,105.588684 11.097865,108.072609 
	C18.208481,114.550735 24.883434,112.557579 31.596180,107.214020 
	C37.899738,102.196190 44.640900,102.089668 51.600922,106.050758 
	C62.681461,112.356911 68.694603,111.169861 75.422264,100.440964 
	C82.924622,88.476624 90.869156,76.773781 97.089920,64.010841 
	C101.797203,54.353058 108.674675,46.315166 116.915749,39.302593 
	C124.022636,33.255127 132.589630,29.181889 139.096451,22.378853 
	C140.782166,20.616419 142.571823,18.637880 141.504990,16.272253 
	C139.913147,12.742489 140.127014,9.201297 140.298843,5.593760 
	C140.395187,3.570477 139.789246,2.020162 138.000000,1.000000 
	C257.600281,1.000000 377.200562,1.000000 497.000000,1.000000 
	C497.000000,142.021957 497.000000,283.044006 496.601868,424.552643 
	C492.493530,424.742584 489.762146,427.552490 486.279999,428.121735 
	C480.875061,429.005341 476.266785,431.641449 472.413696,435.501923 
	C468.532623,439.390472 463.557739,441.223846 458.723846,439.326202 
	C451.228424,436.383759 444.494843,437.525513 437.517975,440.389435 
	C435.231293,441.328064 432.698273,441.669891 430.274445,442.270630 
	C407.649109,447.878082 384.257050,449.823517 361.875916,456.650726 
	C357.677429,457.931427 353.866943,459.540070 350.252808,462.114624 
	C343.141479,467.180389 335.496338,471.041229 326.367401,471.153107 
	C318.501221,471.249573 310.884827,473.182281 303.265930,475.039429 
	C291.859436,477.819855 280.314697,478.974854 268.587372,477.331848 
	C252.294479,475.049164 236.943466,469.609833 221.887436,463.281372 
	C218.166153,461.717285 214.830475,458.785217 213.577774,454.990631 
	C210.668213,446.177155 203.843918,442.843658 195.797592,440.801056 
	C163.706375,432.654694 131.339798,425.439453 100.778214,412.186859 
	C97.383545,410.714783 94.619400,408.684113 93.094475,405.433472 
	C90.487228,399.875641 86.019455,396.697571 80.462074,394.845490 
	C73.676903,392.584229 66.920830,390.263306 59.923679,388.623688 
	C51.264545,386.594696 41.881779,387.868195 33.842907,385.269928 
	C22.598492,381.635498 11.873462,385.006012 1.000000,384.000000 
M310.725189,245.708542 
	C303.816284,238.094193 302.412659,229.890594 306.095917,219.976868 
	C310.024048,209.404236 312.815552,198.371277 315.507446,187.393188 
	C316.881592,181.788986 319.938629,178.419327 324.909515,176.041092 
	C343.126190,167.325668 361.299866,167.669113 379.286865,176.424866 
	C383.149109,178.304932 384.888763,177.575577 386.571747,173.942886 
	C389.581146,167.447144 392.619843,160.934555 396.177032,154.733444 
	C398.657623,150.409149 397.434662,148.171463 393.454224,146.089920 
	C376.263397,137.100067 357.975891,134.175568 338.807831,135.897461 
	C336.245300,136.127670 333.676544,137.449768 330.987579,135.834305 
	C330.945190,135.150085 330.793518,134.485718 330.881989,133.855042 
	C331.829376,127.099915 331.261047,126.391022 324.404602,126.356133 
	C316.239319,126.314583 308.070007,126.490921 299.909729,126.284760 
	C295.839935,126.181938 293.822388,127.827942 292.931091,131.725464 
	C291.225647,139.183456 289.077393,146.541992 287.445587,154.014435 
	C286.348816,159.036774 284.141724,163.200806 280.826447,167.164734 
	C271.461700,178.361786 265.481140,191.173737 263.118164,205.718338 
	C262.496399,209.545425 263.052948,213.538223 261.665833,217.724747 
	C259.579437,214.982330 259.390289,212.109375 258.685760,209.455658 
	C251.899445,183.893356 245.131271,158.326065 238.450195,132.736099 
	C237.249466,128.137100 234.616699,126.054077 229.840256,126.294449 
	C225.851166,126.495209 221.843521,126.321182 217.844101,126.324631 
	C210.424500,126.331039 210.227509,126.453484 208.331177,133.608246 
	C199.936234,165.282059 191.586426,196.967911 183.112122,228.620438 
	C182.614975,230.477325 182.886948,233.015549 180.516769,234.030212 
	C178.668411,232.866379 178.756302,231.057465 178.362442,229.487411 
	C174.761383,215.132324 171.123871,200.785919 167.630646,186.404526 
	C166.628494,182.278763 165.007065,180.693680 160.688980,182.893311 
	C153.837784,186.383331 146.335938,186.914078 138.781357,186.680237 
	C132.818405,186.495667 131.343521,188.030533 132.940155,193.704803 
	C140.960175,222.207230 149.131699,250.667084 157.128296,279.176025 
	C158.069031,282.529907 159.856461,283.704529 163.202057,283.658569 
	C172.532303,283.530334 181.877487,283.327637 191.192581,283.723511 
	C196.213531,283.936890 198.272308,281.907166 199.534348,277.349426 
	C206.503983,252.178909 213.670364,227.062744 220.840057,201.948151 
	C221.405243,199.968369 221.468414,197.629257 223.582062,196.237823 
	C225.325684,198.274643 225.626282,200.816956 226.298737,203.171783 
	C233.378082,227.962952 240.481613,252.747787 247.382294,277.588867 
	C248.607346,281.998718 250.701752,283.890503 255.428574,283.705780 
	C263.748016,283.380585 272.095703,283.419220 280.418945,283.691528 
	C285.074371,283.843842 289.021912,283.432068 290.515930,277.674103 
	C296.680267,281.361633 301.821930,285.625336 307.758087,288.623962 
	C311.443695,290.485779 313.443420,290.668671 314.932312,285.869781 
	C318.279846,275.079987 328.859772,268.113251 339.863678,267.518890 
	C354.260895,266.741211 367.613403,277.995941 368.604767,291.125793 
	C368.890015,294.903656 370.890564,296.180603 374.796356,295.137695 
	C382.109985,293.184967 388.886566,290.102356 395.458374,286.443542 
	C397.991730,285.033112 398.506683,283.329407 397.143738,280.701080 
	C393.616211,273.898468 390.112946,267.075500 386.885559,260.127991 
	C385.022675,256.117859 383.123779,255.231064 378.862885,257.449615 
	C357.329437,268.661621 325.870544,265.340088 310.725189,245.708542 
M336.207489,285.513611 
	C335.277649,286.200317 334.256104,286.792450 333.433685,287.589966 
	C329.652985,291.256104 329.164673,297.375183 332.242920,301.672882 
	C335.463379,306.169128 341.453369,307.564423 346.297119,304.946655 
	C351.358734,302.211151 353.353516,296.347656 351.116455,290.780670 
	C349.094666,285.749481 343.412598,283.526062 336.207489,285.513611 
M311.295044,331.598907 
	C314.394592,327.559082 318.250702,329.065308 322.051636,330.409943 
	C322.002533,327.544464 319.726929,320.536194 318.519897,319.071045 
	C317.691315,318.065277 316.790680,317.513824 315.516632,318.221069 
	C313.610016,319.279419 310.171112,329.193390 311.295044,331.598907 
M170.986496,326.725159 
	C171.660141,325.694458 171.450195,324.001831 173.451050,323.698853 
	C175.092026,325.540741 175.356934,328.089630 176.314865,330.303467 
	C176.740585,331.287354 177.326477,332.086151 178.454041,332.076782 
	C179.568069,332.067505 180.295670,331.343567 180.559326,330.290009 
	C181.424500,326.832886 182.865768,323.476929 182.861862,318.849121 
	C180.445450,321.934998 180.848892,325.390991 178.499252,327.433136 
	C174.594299,325.509521 176.766815,319.967163 172.192978,317.697601 
	C170.552017,322.358673 169.023727,326.699707 167.258942,331.712433 
	C170.232758,330.719025 170.306503,328.929291 170.986496,326.725159 
M202.753983,329.288605 
	C204.917999,324.349152 204.069534,321.083130 200.048218,318.705627 
	C196.746628,316.753601 193.827744,317.467163 191.728149,320.400208 
	C189.343246,323.731842 189.279373,327.436584 192.329025,330.379700 
	C195.623413,333.559021 199.173569,333.336090 202.753983,329.288605 
M248.543945,330.447571 
	C242.432053,327.268158 246.988113,322.300598 246.644928,318.226624 
	C244.882172,317.626801 243.617233,318.298645 243.555206,319.830780 
	C243.396973,323.740112 242.126862,328.029510 244.327835,331.435577 
	C245.698578,333.556854 248.950836,332.487549 251.305786,331.842255 
	C254.284805,331.025940 255.264328,328.556946 255.528290,325.751495 
	C255.814148,322.713318 255.331558,321.888245 252.510223,320.251923 
	C252.950684,324.127106 255.212097,328.572662 248.543945,330.447571 
M302.787872,327.866425 
	C302.481476,324.955139 303.541412,321.805756 300.837524,317.682678 
	C300.653534,321.839417 299.503967,323.415863 296.349823,323.679901 
	C293.129150,323.949493 292.769745,320.956116 290.878662,319.537811 
	C289.562653,325.287598 289.673645,327.608795 291.354156,331.153107 
	C292.748627,329.130402 292.081573,325.956329 295.799194,325.319550 
	C301.052460,324.419800 299.622559,329.442474 301.434692,331.345184 
	C302.972412,330.664032 302.608307,329.533051 302.787872,327.866425 
M216.822754,318.253906 
	C210.129410,318.096405 208.085846,323.193970 211.543549,331.546356 
	C213.512115,330.517548 211.848694,327.958008 213.652176,326.805084 
	C215.185043,325.906067 216.179657,327.927124 217.873734,327.777771 
	C217.912109,324.651031 223.761597,321.479156 216.822754,318.253906 
M279.439331,330.223236 
	C276.774109,330.681274 274.902740,329.631897 273.924957,327.148132 
	C272.192566,322.747559 275.493256,320.463104 278.160248,317.805206 
	C275.690460,317.869171 273.842651,318.852570 272.491394,320.557678 
	C270.130310,323.537048 270.206299,326.739502 272.465881,329.674164 
	C274.439941,332.238007 277.109741,333.357605 280.347015,331.997864 
	C281.499664,331.513702 281.448608,331.301575 279.439331,330.223236 
M229.403366,329.904846 
	C231.884842,333.227936 232.392807,333.337067 236.988159,330.883453 
	C229.525513,331.535858 232.671463,325.180176 230.255936,321.976044 
	C228.756134,324.601257 229.479843,326.922577 229.403366,329.904846 
M334.842896,329.627808 
	C337.955109,326.389160 334.772095,321.586639 338.029419,318.415039 
	C335.819275,317.202515 333.978790,317.027435 331.715088,318.451965 
	C334.874969,321.522095 333.400848,325.659454 334.842896,329.627808 
M162.863022,319.593109 
	C163.091431,322.390167 163.549911,325.092468 165.874969,327.034637 
	C165.537933,324.205292 166.360123,320.967804 162.863022,319.593109 
z"/>
<path fill="#000000" opacity="1.000000" stroke="none" 
	d="
M193.193710,322.702881 
	C194.760803,320.330322 196.348770,318.551697 199.085510,320.030151 
	C201.107239,321.122345 202.413528,322.833099 202.167130,325.293304 
	C201.926956,327.691223 200.567856,329.304626 198.268509,329.959900 
	C194.900513,330.919800 193.212585,328.653931 193.193710,322.702881 
z"/>
<path fill="#000000" opacity="1.000000" stroke="none" 
	d="
M215.846039,323.855621 
	C213.398422,323.719879 212.270767,322.650482 213.335312,320.674042 
	C214.144089,319.172455 215.905243,318.999329 217.143768,320.110962 
	C218.850296,321.642670 218.181763,322.977509 215.846039,323.855621 
z"/>
</svg>